<svg version="1.1" viewBox="0 0 100 100" width="100px" height="100px" xmlns="http://www.w3.org/2000/svg">
    <style>
        @keyframes waving {
            0% {
                transform: translateX(0);
            }
            100% {
                transform: translateX(-33.33%);
            }
        }
        path, rect {
            fill: none;
            stroke: #090909;
        }
        path {
            stroke-width: 12;
            animation: waving 2s linear infinite both;
        }
        rect {
            fill: #090909;
            stroke-width: 18;
        }
		@media (prefers-color-scheme: dark) {
            path, rect {
                stroke: #818181;
            }
        }
    </style>
    <rect width="100%" height="100%"/>
    <path d="m0.7792 34.78c8.268 0 8.268 30.44 16.54 30.44 8.268 0 8.268-30.44 16.54-30.44 8.268 0 8.268 30.44 16.54 30.44 8.268 0 8.268-30.44 16.54-30.44 8.268 0 8.268 30.44 16.54 30.44 8.268 0 8.268-30.44 16.54-30.44 8.268 0 8.268 30.44 16.54 30.44s8.268-30.44 16.54-30.44 8.268 30.44 16.54 30.44c8.268 0 8.268-30.44 16.54-30.44 8.273 0 8.268 30.44 16.54 30.44"/>
</svg>
